<?xml version="1.0" encoding="UTF-8" standalone="no"?>
<svg
   xmlns:dc="http://purl.org/dc/elements/1.1/"
   xmlns:cc="http://creativecommons.org/ns#"
   xmlns:rdf="http://www.w3.org/1999/02/22-rdf-syntax-ns#"
   xmlns:svg="http://www.w3.org/2000/svg"
   xmlns="http://www.w3.org/2000/svg"
   xmlns:sodipodi="http://sodipodi.sourceforge.net/DTD/sodipodi-0.dtd"
   xmlns:inkscape="http://www.inkscape.org/namespaces/inkscape"
   version="1.1"
   viewBox="-5 -5 1460 1530"
   id="svg3"
   sodipodi:docname="pending.svg"
   inkscape:version="0.92.5 (2060ec1f9f, 2020-04-08)">
  <metadata
     id="metadata9">
    <rdf:RDF>
      <cc:Work
         rdf:about="">
        <dc:format>image/svg+xml</dc:format>
        <dc:type
           rdf:resource="http://purl.org/dc/dcmitype/StillImage" />
        <dc:title />
      </cc:Work>
    </rdf:RDF>
  </metadata>
  <defs
     id="defs7" />
  <sodipodi:namedview
     pagecolor="#ffffff"
     bordercolor="#666666"
     borderopacity="1"
     objecttolerance="10"
     gridtolerance="10"
     guidetolerance="10"
     inkscape:pageopacity="0"
     inkscape:pageshadow="2"
     inkscape:window-width="1920"
     inkscape:window-height="1051"
     id="namedview5"
     showgrid="false"
     inkscape:zoom="0.30849673"
     inkscape:cx="166.59038"
     inkscape:cy="552.4386"
     inkscape:window-x="1920"
     inkscape:window-y="-37"
     inkscape:window-maximized="1"
     inkscape:current-layer="svg3" />
  <path
     id="ThumbsUp"
     d="m -4.0557844,675.55326 c 0,-15.60276 12.6484144,-28.25099 28.2508924,-28.25099 h 88.374642 c 15.60228,0 28.25099,12.64823 28.25099,28.25099 v 275.56057 c 0,15.6028 -12.64871,28.25053 -28.25099,28.25053 H 24.195108 c -15.602478,0 -28.2508924,-12.64773 -28.2508924,-28.25053 z M 408.59426,271.8122 c 42.56383,-3.48187 80.15361,32.2872 84.96913,73.64083 8.68407,44.44901 -5.75763,89.17737 -27.94838,127.40101 -11.8175,26.2682 -29.56673,54.22663 -23.16719,84.1473 22.27498,6.16072 50.03063,-0.75941 74.36976,1.55553 39.79916,0.927 80.56901,-1.72676 119.49738,7.74999 26.15213,12.27287 43.29187,40.40109 50.1249,67.70232 -1.66548,25.05007 -40.21314,45.60059 -14.28473,71.07129 22.54527,22.15175 10.29716,49.15506 -10.70156,66.81347 -19.35239,26.04266 23.97754,53.63175 4.03039,80.34065 -14.47985,20.185 -43.15391,35.18818 -35.76884,64.40469 3.37847,29.35452 -25.39072,48.32159 -46.24679,63.30561 -36.7252,18.33413 -79.7315,13.56152 -119.55685,14.50833 -66.66977,-2.10318 -133.91051,-2.94537 -199.14799,-18.32454 -31.3026,-5.92888 -62.75365,-11.18698 -93.95918,-17.55842 l -0.92079,-296.1987 c 26.33866,3.74301 47.56493,-15.10925 61.49744,-35.40861 30.83633,-41.54637 47.56485,-90.9327 69.65857,-137.08905 20.64278,-31.0952 60.87877,-45.73625 72.93126,-83.3289 17.15074,-39.81254 18.97645,-83.79527 23.57075,-126.27811 -1.93289,-5.48927 14.98743,-8.58793 11.04938,-8.45531 z"
     style="fill:#ffffff;fill-opacity:1;stroke:none;stroke-width:0"
     inkscape:connector-curvature="0" />
  <path
     id="ThumbsUp-6"
     d="m 1455.1566,874.89165 c 0.063,15.60263 -12.5333,28.30225 -28.1357,28.36577 l -88.3739,0.3598 c -15.6021,0.0635 -28.3022,-12.53311 -28.3658,-28.13574 l -1.1218,-275.55831 c -0.064,-15.60268 12.5335,-28.30187 28.1357,-28.36539 l 88.3739,-0.35979 c 15.6024,-0.0635 28.3022,12.53267 28.3657,28.13534 z m -411.003,405.41765 c -42.5492,3.6552 -80.28434,-31.9606 -85.26817,-73.2942 -8.86499,-44.4133 5.39449,-89.2001 27.42949,-127.5138 11.71046,-26.3161 29.34568,-54.3465 22.82438,-84.24088 -22.29985,-6.06998 -50.02715,0.96309 -74.37547,-1.25274 -39.80265,-0.76496 -80.56131,2.05477 -119.52797,-7.26342 -26.20185,-12.16629 -43.45592,-40.2245 -50.40011,-67.49768 1.5635,-25.05665 40.02721,-45.76393 13.99533,-71.12886 -22.6353,-22.05978 -10.49724,-49.11273 10.42939,-66.85649 19.24622,-26.12123 -24.19565,-53.53368 -4.35745,-80.32357 14.3976,-20.24379 43.01028,-35.36358 35.50639,-64.54986 -3.49798,-29.34051 25.19376,-48.42457 45.98869,-63.49336 36.65025,-18.48347 79.67562,-13.886 119.49674,-14.99493 66.67776,1.83175 133.92136,2.40019 199.22096,17.51357 31.3265,5.80141 62.7987,10.93142 94.0299,17.17572 l 2.1267,296.19259 c -26.3537,-3.63574 -47.5031,15.30278 -61.3528,35.65869 -30.6669,41.67157 -47.1942,91.12562 -69.0998,137.37152 -20.5161,31.179 -60.6921,45.9837 -72.5915,83.6251 -16.9884,39.8821 -18.6352,83.8718 -23.0565,126.373 1.9553,5.4814 -14.9523,8.6489 -11.0148,8.5002 z"
     style="fill:#ffffff;fill-opacity:1;stroke:none;stroke-width:0"
     inkscape:connector-curvature="0" />
</svg>
