<?xml version="1.0" encoding="UTF-8" standalone="no"?>
<svg
   xmlns:dc="http://purl.org/dc/elements/1.1/"
   xmlns:cc="http://creativecommons.org/ns#"
   xmlns:rdf="http://www.w3.org/1999/02/22-rdf-syntax-ns#"
   xmlns:svg="http://www.w3.org/2000/svg"
   xmlns="http://www.w3.org/2000/svg"
   xmlns:sodipodi="http://sodipodi.sourceforge.net/DTD/sodipodi-0.dtd"
   xmlns:inkscape="http://www.inkscape.org/namespaces/inkscape"
   version="1.1"
   viewBox="-5 -5 1460 1530"
   id="svg3"
   sodipodi:docname="rejected.svg"
   inkscape:version="0.92.5 (2060ec1f9f, 2020-04-08)">
  <metadata
     id="metadata9">
    <rdf:RDF>
      <cc:Work
         rdf:about="">
        <dc:format>image/svg+xml</dc:format>
        <dc:type
           rdf:resource="http://purl.org/dc/dcmitype/StillImage" />
        <dc:title></dc:title>
      </cc:Work>
    </rdf:RDF>
  </metadata>
  <defs
     id="defs7" />
  <sodipodi:namedview
     pagecolor="#ffffff"
     bordercolor="#666666"
     borderopacity="1"
     objecttolerance="10"
     gridtolerance="10"
     guidetolerance="10"
     inkscape:pageopacity="0"
     inkscape:pageshadow="2"
     inkscape:window-width="1920"
     inkscape:window-height="1051"
     id="namedview5"
     showgrid="false"
     inkscape:zoom="0.15424837"
     inkscape:cx="730"
     inkscape:cy="765"
     inkscape:window-x="1920"
     inkscape:window-y="-37"
     inkscape:window-maximized="1"
     inkscape:current-layer="svg3" />
  <path
     id="ThumbsUp"
     d="m 1450.3858,664.44488 c 0.2564,32.789 -26.1164,59.577 -58.9047,59.83335 l -185.7183,1.45198 c -32.788,0.25634 -59.577,-26.11603 -59.8334,-58.90503 L 1141.402,87.737878 c -0.2563,-32.788998 26.1171,-59.576002 58.9051,-59.832345 l 185.7183,-1.451981 c 32.7883,-0.256345 59.5766,26.115031 59.833,58.904029 z M 589.84,1519.6817 c -89.39006,8.0164 -168.97233,-66.5343 -179.77145,-153.3592 -18.97973,-93.2665 10.63446,-187.4999 56.64002,-268.191 24.40266,-55.3965 61.24317,-114.44232 47.30299,-177.21525 -46.91179,-12.58063 -105.12631,2.41794 -156.31278,-2.04702 -83.65267,-1.29405 -169.28645,4.95263 -251.24966,-14.32318 C 51.289158,879.18451 14.808116,820.35492 0,763.09394 3.0883248,710.42419 83.758207,666.60418 28.851393,613.50381 -18.891108,567.32265 6.4044447,510.37415 50.242972,472.92028 90.483853,417.87399 -1.0266494,360.60767 40.453248,304.15166 70.55068,261.49505 130.56234,229.49491 114.5628,168.21812 106.98072,106.58551 167.12725,66.254054 210.70973,34.422356 287.58614,-4.7098563 378.04179,4.6132507 461.71868,1.9689881 c 140.14027,3.3244918 281.45979,3.989683 418.80828,35.2368539 65.8794,11.945323 132.05984,22.47825 197.74244,35.35514 l 6.8015,622.442848 c -55.4118,-7.43302 -99.70876,32.53351 -128.65435,75.42112 -64.11942,87.81597 -98.46294,191.87564 -144.13418,289.23565 -42.86978,65.6852 -127.18465,97.1143 -151.89523,176.3129 -35.38779,83.9472 -38.50204,176.4064 -47.45876,265.7592 4.15206,11.5039 -31.35494,18.2937 -23.08137,17.9503 z"
     inkscape:connector-curvature="0"
     style="fill:#e9322d;stroke:none;stroke-width:0;fill-opacity:1" />
</svg>
